<svg xmlns="http://www.w3.org/2000/svg" viewBox="0 0 200 200" fill="none">
  <defs>
    <clipPath id="cs-ext-clip">
      <path d="M68 36 L132 36 L154 58 L154 78 L122 78 L122 66 L80 66 L80 134 L122 134 L122 122 L154 122 L154 142 L132 164 L68 164 L46 142 L46 58 Z" />
    </clipPath>
  </defs>

  <!-- Dark Slate Background Plate -->
  <rect width="200" height="200" rx="42" fill="#222A36" />
  <rect x="1" y="1" width="198" height="198" rx="41" stroke="#FFFFFF" stroke-opacity="0.08" stroke-width="2" />

  <!-- Checkerboard Field inside 'C' -->
  <g clip-path="url(#cs-ext-clip)">
    <rect x="36" y="26" width="128" height="148" fill="#E52E2E" />
    
    <!-- Staggered White Checkerboard Squares -->
    <!-- Row 1 -->
    <rect x="64" y="36" width="18" height="18" fill="#FFFFFF" />
    <rect x="100" y="36" width="18" height="18" fill="#FFFFFF" />
    <rect x="136" y="36" width="18" height="18" fill="#FFFFFF" />
    <!-- Row 2 -->
    <rect x="46" y="54" width="18" height="18" fill="#FFFFFF" />
    <rect x="82" y="54" width="18" height="18" fill="#FFFFFF" />
    <rect x="118" y="54" width="18" height="18" fill="#FFFFFF" />
    <!-- Row 3 -->
    <rect x="64" y="72" width="18" height="18" fill="#FFFFFF" />
    <rect x="136" y="72" width="18" height="18" fill="#FFFFFF" />
    <!-- Row 4 -->
    <rect x="46" y="90" width="18" height="18" fill="#FFFFFF" />
    <!-- Row 5 -->
    <rect x="64" y="108" width="18" height="18" fill="#FFFFFF" />
    <!-- Row 6 -->
    <rect x="46" y="126" width="18" height="18" fill="#FFFFFF" />
    <rect x="82" y="126" width="18" height="18" fill="#FFFFFF" />
    <rect x="118" y="126" width="18" height="18" fill="#FFFFFF" />
    <!-- Row 7 -->
    <rect x="64" y="146" width="18" height="18" fill="#FFFFFF" />
    <rect x="100" y="146" width="18" height="18" fill="#FFFFFF" />
    <rect x="136" y="146" width="18" height="18" fill="#FFFFFF" />
  </g>

  <!-- 4 Dynamic Razor Slashes with External Needle Spikes -->
  <path d="M112 24 L168 80 L162 86 L106 30 Z" fill="#222A36" />
  <path d="M112 24 L142 -6" stroke="#E52E2E" stroke-width="3.5" stroke-linecap="round" />
  <path d="M150 62 L172 40" stroke="#E52E2E" stroke-width="2.5" stroke-linecap="round" />

  <path d="M78 38 L160 120 L154 126 L72 44 Z" fill="#222A36" />
  <path d="M84 32 L116 0" stroke="#E52E2E" stroke-width="4" stroke-linecap="round" />
  <path d="M146 106 L178 74" stroke="#E52E2E" stroke-width="3.5" stroke-linecap="round" />

  <path d="M48 76 L130 158 L124 164 L42 82 Z" fill="#222A36" />
  <path d="M44 80 L22 102" stroke="#E52E2E" stroke-width="3.5" stroke-linecap="round" />
  <path d="M62 62 L32 92" stroke="#E52E2E" stroke-width="3.5" stroke-linecap="round" />

  <path d="M32 118 L94 180 L88 186 L26 124 Z" fill="#222A36" />
  <path d="M34 116 L12 138" stroke="#E52E2E" stroke-width="3.5" stroke-linecap="round" />
  <path d="M78 164 L96 182" stroke="#E52E2E" stroke-width="2.5" stroke-linecap="round" />
</svg>